0
SECTION
2
HEADER
9
$INSUNITS
70
4
9
$ACADVER
1
AC1014
9
$HANDSEED
5
FFFF
0
ENDSEC
0
SECTION
2
TABLES
0
TABLE
2
VPORT
5
8
100
AcDbSymbolTable
0
ENDTAB
0
TABLE
2
LTYPE
5
5
100
AcDbSymbolTable
0
LTYPE
5
14
100
AcDbSymbolTableRecord
100
AcDbLinetypeTableRecord
2
BYBLOCK
70
0
0
LTYPE
5
15
100
AcDbSymbolTableRecord
100
AcDbLinetypeTableRecord
2
BYLAYER
70
0
0
ENDTAB
0
TABLE
2
LAYER
5
2
100
AcDbSymbolTable
70
2
0
LAYER
5
50
100
AcDbSymbolTableRecord
100
AcDbLayerTableRecord
2
0
70
0
6
CONTINUOUS
0
ENDTAB
0
TABLE
2
STYLE
5
3
100
AcDbSymbolTable
70
1
0
STYLE
5
11
100
AcDbSymbolTableRecord
100
AcDbTextStyleTableRecord
2
STANDARD
70
0
0
ENDTAB
0
TABLE
2
VIEW
5
6
100
AcDbSymbolTable
70
0
0
ENDTAB
0
TABLE
2
UCS
5
7
100
AcDbSymbolTable
70
0
0
ENDTAB
0
TABLE
2
APPID
5
9
100
AcDbSymbolTable
70
2
0
APPID
5
12
100
AcDbSymbolTableRecord
100
AcDbRegAppTableRecord
2
ACAD
70
0
0
ENDTAB
0
TABLE
2
DIMSTYLE
5
A
100
AcDbSymbolTable
70
1
0
ENDTAB
0
TABLE
2
BLOCK_RECORD
5
1
100
AcDbSymbolTable
70
1
0
BLOCK_RECORD
5
1F
100
AcDbSymbolTableRecord
100
AcDbBlockTableRecord
2
*MODEL_SPACE
0
BLOCK_RECORD
5
1B
100
AcDbSymbolTableRecord
100
AcDbBlockTableRecord
2
*PAPER_SPACE
0
ENDTAB
0
ENDSEC
0
SECTION
2
BLOCKS
0
BLOCK
5
20
100
AcDbEntity
100
AcDbBlockBegin
2
*MODEL_SPACE
0
ENDBLK
5
21
100
AcDbEntity
100
AcDbBlockEnd
0
BLOCK
5
1C
100
AcDbEntity
100
AcDbBlockBegin
2
*PAPER_SPACE
0
ENDBLK
5
1D
100
AcDbEntity
100
AcDbBlockEnd
0
ENDSEC
0
SECTION
2
ENTITIES
0
LWPOLYLINE
5
100
100
AcDbEntity
8
0
100
AcDbPolyline
90
40
70
1
43
0.0
10
99.999999999999986
20
-196
42
-0.41421356237309503
10
96
20
-200
10
54
20
-200
42
-0.41421356237309503
10
50
20
-196
10
50
20
-154
42
0.41421356237309503
10
46
20
-150
10
4.0000000000000311
20
-150
42
-0.41421356237309503
10
2.0261570199409107e-14
20
-146
10
1.4988010832439613e-14
20
-104.00000000000003
42
0.41421356237309509
10
-3.9999999999999858
20
-100.00000000000001
10
-45.999999999999986
20
-100.00000000000003
42
-0.41421356237309503
10
-49.999999999999993
20
-96.000000000000028
10
-50
20
-54.000000000000021
42
-0.41421356237309503
10
-46
20
-50.000000000000014
10
-3.9999999999999947
20
-50.000000000000014
42
0.41421356237309509
10
6.3837823915946517e-15
20
-46.000000000000014
10
-2.7755575615628914e-15
20
-4.0000000000000036
42
-0.4142135623730952
10
4.0000000000000036
20
0
10
46
20
0
42
0.41421356237309531
10
50
20
4.0000000000000036
10
50
20
46
42
-0.41421356237309503
10
54
20
50
10
96
20
50.000000000000014
42
-0.41421356237309503
10
100
20
46.000000000000014
10
100.00000000000001
20
3.9999999999999987
42
0.41421356237309492
10
104.00000000000003
20
0
10
146
20
3.3306690738754696e-15
42
-0.41421356237309531
10
150
20
-4.0000000000000036
10
150
20
-45.999999999999986
42
0.41421356237309503
10
154
20
-49.999999999999993
10
195.99999999999994
20
-49.999999999999972
42
-0.41421356237309764
10
200
20
-53.999999999999993
10
200
20
-96
42
-0.41421356237309503
10
196
20
-100
10
154.00000000000003
20
-100
42
0.41421356237309503
10
150.00000000000003
20
-104
10
150.00000000000003
20
-146
42
-0.41421356237309503
10
146
20
-150
10
104
20
-150
42
0.41421356237309503
10
100
20
-154
0
CIRCLE
5
101
100
AcDbEntity
8
0
100
AcDbCircle
10
102.99999999999999
20
-65
30
0
40
1.5000000000000036
0
CIRCLE
5
102
100
AcDbEntity
8
0
100
AcDbCircle
10
118
20
-103.99999999999999
30
0
40
1.5000000000000036
0
CIRCLE
5
103
100
AcDbEntity
8
0
100
AcDbCircle
10
68.242413086517189
20
-65.033304287374733
30
0
40
1.4999999999999947
0
CIRCLE
5
104
100
AcDbEntity
8
0
100
AcDbCircle
10
87.010205135664336
20
-74.131105920955221
30
0
40
1.5000000000000036
0
CIRCLE
5
105
100
AcDbEntity
8
0
100
AcDbCircle
10
69.747381777818504
20
-85.835589791669975
30
0
40
1.4999999999999858
0
CIRCLE
5
106
100
AcDbEntity
8
0
100
AcDbCircle
10
75.000000000000014
20
-75
30
0
40
4.5000000000000018
0
ENDSEC
0
SECTION
2
OBJECTS
0
DICTIONARY
5
C
100
AcDbDictionary
3
ACAD_GROUP
350
D
3
ACAD_MLINESTYLE
350
17
0
DICTIONARY
5
D
100
AcDbDictionary
0
DICTIONARY
5
1A
330
C
100
AcDbDictionary
0
DICTIONARY
5
17
100
AcDbDictionary
0
ENDSEC
0
EOF
