<?xml version="1.0" encoding="UTF-8" standalone="no"?>
<!-- Created with Inkscape (http://www.inkscape.org/) -->

<svg
   xmlns:dc="http://purl.org/dc/elements/1.1/"
   xmlns:cc="http://creativecommons.org/ns#"
   xmlns:rdf="http://www.w3.org/1999/02/22-rdf-syntax-ns#"
   xmlns:svg="http://www.w3.org/2000/svg"
   xmlns="http://www.w3.org/2000/svg"
   xmlns:sodipodi="http://sodipodi.sourceforge.net/DTD/sodipodi-0.dtd"
   xmlns:inkscape="http://www.inkscape.org/namespaces/inkscape"
   width="600mm"
   height="300mm"
   viewBox="0 0 600 300"
   version="1.1"
   id="svg106"
   inkscape:version="0.92.3 (2405546, 2018-03-11)"
   sodipodi:docname="balanceIsen2.svg">
  <defs
     id="defs100">
    <marker
       style="overflow:visible"
       refY="0.0"
       refX="0.0"
       orient="auto"
       id="DistanceX">
      <path
         id="path110"
         style="stroke:#000000; stroke-width:0.5"
         d="M 3,-3 L -3,3 M 0,-5 L  0,5" />
    </marker>
    <pattern
       y="0"
       x="0"
       width="8"
       patternUnits="userSpaceOnUse"
       id="Hatch"
       height="8">
      <path
         id="path113"
         stroke-width="0.25"
         stroke="#000000"
         linecap="square"
         d="M8 4 l-4,4" />
      <path
         id="path115"
         stroke-width="0.25"
         stroke="#000000"
         linecap="square"
         d="M6 2 l-4,4" />
      <path
         id="path117"
         stroke-width="0.25"
         stroke="#000000"
         linecap="square"
         d="M4 0 l-4,4" />
    </pattern>
    <symbol
       id="*MODEL_SPACE" />
    <symbol
       id="*PAPER_SPACE" />
    <marker
       style="overflow:visible"
       refY="0.0"
       refX="0.0"
       orient="auto"
       id="DistanceX-1">
      <path
         id="path146"
         style="stroke:#000000; stroke-width:0.5"
         d="M 3,-3 L -3,3 M 0,-5 L  0,5" />
    </marker>
    <pattern
       y="0"
       x="0"
       width="8"
       patternUnits="userSpaceOnUse"
       id="Hatch-8"
       height="8">
      <path
         id="path149"
         stroke-width="0.25"
         stroke="#000000"
         linecap="square"
         d="M8 4 l-4,4" />
      <path
         id="path151"
         stroke-width="0.25"
         stroke="#000000"
         linecap="square"
         d="M6 2 l-4,4" />
      <path
         id="path153"
         stroke-width="0.25"
         stroke="#000000"
         linecap="square"
         d="M4 0 l-4,4" />
    </pattern>
    <symbol
       id="*MODEL_SPACE-7" />
    <symbol
       id="*PAPER_SPACE-3" />
    <marker
       style="overflow:visible"
       refY="0.0"
       refX="0.0"
       orient="auto"
       id="DistanceX-0">
      <path
         id="path194"
         style="stroke:#000000; stroke-width:0.5"
         d="M 3,-3 L -3,3 M 0,-5 L  0,5" />
    </marker>
    <pattern
       y="0"
       x="0"
       width="8"
       patternUnits="userSpaceOnUse"
       id="Hatch-2"
       height="8">
      <path
         id="path197"
         stroke-width="0.25"
         stroke="#000000"
         linecap="square"
         d="M8 4 l-4,4" />
      <path
         id="path199"
         stroke-width="0.25"
         stroke="#000000"
         linecap="square"
         d="M6 2 l-4,4" />
      <path
         id="path201"
         stroke-width="0.25"
         stroke="#000000"
         linecap="square"
         d="M4 0 l-4,4" />
    </pattern>
    <symbol
       id="*MODEL_SPACE-6" />
    <symbol
       id="*PAPER_SPACE-8" />
    <marker
       style="overflow:visible"
       refY="0.0"
       refX="0.0"
       orient="auto"
       id="DistanceX-10">
      <path
         id="path319"
         style="stroke:#000000; stroke-width:0.5"
         d="M 3,-3 L -3,3 M 0,-5 L  0,5" />
    </marker>
    <pattern
       y="0"
       x="0"
       width="8"
       patternUnits="userSpaceOnUse"
       id="Hatch-7"
       height="8">
      <path
         id="path322"
         stroke-width="0.25"
         stroke="#000000"
         linecap="square"
         d="M8 4 l-4,4" />
      <path
         id="path324"
         stroke-width="0.25"
         stroke="#000000"
         linecap="square"
         d="M6 2 l-4,4" />
      <path
         id="path326"
         stroke-width="0.25"
         stroke="#000000"
         linecap="square"
         d="M4 0 l-4,4" />
    </pattern>
    <symbol
       id="*MODEL_SPACE-3" />
    <symbol
       id="*PAPER_SPACE-7" />
  </defs>
  <sodipodi:namedview
     id="base"
     pagecolor="#ffffff"
     bordercolor="#666666"
     borderopacity="1.0"
     inkscape:pageopacity="0.0"
     inkscape:pageshadow="2"
     inkscape:zoom="0.7"
     inkscape:cx="1564.0349"
     inkscape:cy="572.07588"
     inkscape:document-units="mm"
     inkscape:current-layer="layer1"
     showgrid="false"
     inkscape:window-width="1920"
     inkscape:window-height="1001"
     inkscape:window-x="-9"
     inkscape:window-y="-9"
     inkscape:window-maximized="1" />
  <metadata
     id="metadata103">
    <rdf:RDF>
      <cc:Work
         rdf:about="">
        <dc:format>image/svg+xml</dc:format>
        <dc:type
           rdf:resource="http://purl.org/dc/dcmitype/StillImage" />
        <dc:title></dc:title>
      </cc:Work>
    </rdf:RDF>
  </metadata>
  <g
     inkscape:label="Calque 1"
     inkscape:groupmode="layer"
     id="layer1"
     transform="translate(0,3)">
    <g
       id="g126"
       inkscape:label="0"
       transform="matrix(0.26458333,0,0,0.26458333,203.51191,-246.60119)">
      <path
         id="path124"
         style="fill:none;stroke:#000000"
         d="m -210.09449,1872.4252 h -158.74016 a 15.11811,15.11811 0 0 1 -15.11811,-15.1181 v -158.7402 a 15.11811,15.11811 0 0 0 -15.11811,-15.1181 h -158.74015 a 15.11811,15.11811 0 0 1 -15.11811,-15.1181 v -158.7401 a 15.11811,15.11811 0 0 0 -15.11811,-15.1182 H -746.7874 a 15.11811,15.11811 0 0 1 -15.11811,-15.1181 v -158.7401 a 15.11811,15.11811 0 0 1 15.11811,-15.1181 h 158.74016 a 15.11811,15.11811 0 0 0 15.11811,-15.1181 v -158.7402 a 15.11811,15.11811 0 0 1 15.11811,-15.1181 h 158.74015 a 15.11811,15.11811 0 0 0 15.11811,-15.1181 V 942.66142 a 15.11811,15.11811 0 0 1 15.11811,-15.11811 h 158.74016 a 15.11811,15.11811 0 0 1 15.11811,15.11811 v 158.74018 a 15.11811,15.11811 0 0 0 15.11811,15.1181 H -21.11811 A 15.11811,15.11811 0 0 1 -6,1131.6378 v 158.7402 a 15.11811,15.11811 0 0 0 15.11811,15.1181 h 158.74016 a 15.11811,15.11811 0 0 1 15.11811,15.1181 v 158.7401 a 15.11811,15.11811 0 0 1 -15.11811,15.1181 H 9.11811 A 15.11811,15.11811 0 0 0 -6,1509.5906 v 158.7401 a 15.11811,15.11811 0 0 1 -15.11811,15.1181 h -158.74016 a 15.11811,15.11811 0 0 0 -15.11811,15.1181 v 158.7402 a 15.11811,15.11811 0 0 1 -15.11811,15.1181 z"
         inkscape:connector-curvature="0" />
    </g>
    <g
       id="g170"
       inkscape:label="0"
       transform="matrix(0,0.26458333,-0.26458333,0,601.26128,199.03808)">
      <path
         id="path160"
         style="fill:none;stroke:#000000"
         d="m -483.77954,1039.3701 h -71.81102 v 71.811 h 71.81102 z"
         inkscape:connector-curvature="0" />
      <path
         id="path162"
         style="fill:none;stroke:#000000"
         d="m -483.77954,755.90551 h -71.81102 v 71.81103 h 71.81102 z"
         inkscape:connector-curvature="0" />
      <path
         id="path164"
         style="fill:none;stroke:#000000"
         d="m -11.338583,1111.1811 v -71.811 h -71.811023 v 71.811 z"
         inkscape:connector-curvature="0" />
      <path
         id="path166"
         style="fill:none;stroke:#000000"
         d="m -11.338583,827.71654 v -71.81103 h -71.811023 v 71.81103 z"
         inkscape:connector-curvature="0" />
      <path
         id="path168"
         style="fill:none;stroke:#000000"
         d="m 188.97638,914.64567 a 18.897638,18.897638 0 0 1 -18.89764,18.89764 H 18.897638 A 18.897638,18.897638 0 0 0 0,952.44095 V 1103.622 a 18.897638,18.897638 0 0 1 -18.897638,18.8977 H -170.07874 a 18.897638,18.897638 0 0 0 -18.89764,18.8976 v 151.1811 a 18.897638,18.897638 0 0 1 -18.89764,18.8977 h -151.1811 a 18.897638,18.897638 0 0 1 -18.89764,-18.8977 v -151.1811 a 18.897638,18.897638 0 0 0 -18.89763,-18.8976 H -548.0315 a 18.897638,18.897638 0 0 1 -18.89763,-18.8977 V 952.44095 a 18.897638,18.897638 0 0 0 -18.89764,-18.89764 h -151.1811 a 18.897638,18.897638 0 0 1 -18.89764,-18.89764 v -151.1811 a 18.897638,18.897638 0 0 1 18.89764,-18.89764 h 340.15748 a 18.897638,18.897638 0 0 0 18.89763,-18.89764 V 385.51181 a 18.897638,18.897638 0 0 1 18.89764,-18.89764 h 151.1811 a 18.897638,18.897638 0 0 1 18.89764,18.89764 v 340.15748 a 18.897638,18.897638 0 0 0 18.89764,18.89764 h 340.15748 a 18.897638,18.897638 0 0 1 18.89764,18.89764 z"
         inkscape:connector-curvature="0" />
    </g>
  </g>
</svg>
