0
SECTION
2
HEADER
9
$INSUNITS
70
4
9
$ACADVER
1
AC1014
9
$HANDSEED
5
FFFF
0
ENDSEC
0
SECTION
2
TABLES
0
TABLE
2
VPORT
5
8
100
AcDbSymbolTable
0
ENDTAB
0
TABLE
2
LTYPE
5
5
100
AcDbSymbolTable
0
LTYPE
5
14
100
AcDbSymbolTableRecord
100
AcDbLinetypeTableRecord
2
BYBLOCK
70
0
0
LTYPE
5
15
100
AcDbSymbolTableRecord
100
AcDbLinetypeTableRecord
2
BYLAYER
70
0
0
ENDTAB
0
TABLE
2
LAYER
5
2
100
AcDbSymbolTable
70
2
0
LAYER
5
50
100
AcDbSymbolTableRecord
100
AcDbLayerTableRecord
2
0
70
0
6
CONTINUOUS
0
ENDTAB
0
TABLE
2
STYLE
5
3
100
AcDbSymbolTable
70
1
0
STYLE
5
11
100
AcDbSymbolTableRecord
100
AcDbTextStyleTableRecord
2
STANDARD
70
0
0
ENDTAB
0
TABLE
2
VIEW
5
6
100
AcDbSymbolTable
70
0
0
ENDTAB
0
TABLE
2
UCS
5
7
100
AcDbSymbolTable
70
0
0
ENDTAB
0
TABLE
2
APPID
5
9
100
AcDbSymbolTable
70
2
0
APPID
5
12
100
AcDbSymbolTableRecord
100
AcDbRegAppTableRecord
2
ACAD
70
0
0
ENDTAB
0
TABLE
2
DIMSTYLE
5
A
100
AcDbSymbolTable
70
1
0
ENDTAB
0
TABLE
2
BLOCK_RECORD
5
1
100
AcDbSymbolTable
70
1
0
BLOCK_RECORD
5
1F
100
AcDbSymbolTableRecord
100
AcDbBlockTableRecord
2
*MODEL_SPACE
0
BLOCK_RECORD
5
1B
100
AcDbSymbolTableRecord
100
AcDbBlockTableRecord
2
*PAPER_SPACE
0
ENDTAB
0
ENDSEC
0
SECTION
2
BLOCKS
0
BLOCK
5
20
100
AcDbEntity
100
AcDbBlockBegin
2
*MODEL_SPACE
0
ENDBLK
5
21
100
AcDbEntity
100
AcDbBlockEnd
0
BLOCK
5
1C
100
AcDbEntity
100
AcDbBlockBegin
2
*PAPER_SPACE
0
ENDBLK
5
1D
100
AcDbEntity
100
AcDbBlockEnd
0
ENDSEC
0
SECTION
2
ENTITIES
0
LWPOLYLINE
5
100
100
AcDbEntity
8
0
100
AcDbPolyline
90
48
70
1
43
0.0
10
-121
20
-24.999999999999986
42
-0.41421356237309503
10
-125
20
-20.999999999999979
10
-125
20
21.000000000000014
42
-0.41421356237309503
10
-121
20
25.000000000000014
10
-63.96972523062275
20
25.000000000000004
42
0.6996769313483111
10
-61.394212403461161
20
32.060511995912805
10
-84.395058525090008
20
51.416415289523954
42
0.21742868573779367
10
-87.59532013125137
20
52.306813184147536
42
-2.6794159105371906
10
-66.502758184669375
20
77.371351081709236
42
0.217428685737795
10
-65.078712321378049
20
74.370255258869918
10
-31.575512827161575
20
46.176305957725994
42
0.63757104469334203
10
-24.999999999999996
20
49.236817953638798
10
-24.999999999999986
20
121
42
-0.41421356237309537
10
-20.999999999999979
20
125
10
21.000000000000014
20
125
42
-0.41421356237309503
10
25.000000000000014
20
121
10
25
20
49.236817953638798
42
0.63757104469334347
10
31.575512827161596
20
46.176305957726001
10
65.078712321378106
20
74.370255258869946
42
0.21742868573779392
10
66.502758184669389
20
77.371351081709264
42
-2.6794159105371906
10
87.595320131251356
20
52.306813184147558
42
0.21742868573779534
10
84.395058525089979
20
51.416415289523954
10
61.394212403461125
20
32.06051199591279
42
0.69967693134831122
10
63.969725230622707
20
24.999999999999996
10
121
20
24.999999999999986
42
-0.41421356237309503
10
125
20
20.999999999999982
10
125
20
-21
42
-0.41421356237309503
10
121
20
-25
10
59.153422332024107
20
-25
42
0.6816493798927985
10
56.431617934555007
20
-31.931173966505206
10
65.550896657983202
20
-40.399075638259951
42
-2.8316607628154933
10
45.014420773925735
20
-64.150982486891209
42
0.21742868573779431
10
43.738532495222969
20
-61.08396571828861
10
31.721804397469121
20
-49.925575341802883
42
0.65487348315777583
10
25
20
-52.856749308308075
10
25
20
-121
42
-0.41421356237309503
10
20.999999999999996
20
-125
10
-21.066325540490141
20
-125
10
-21.066325540490141
20
-124.99945007753298
42
-0.40936506230417963
10
-25
20
-121
10
-25.000000000000004
20
-52.856749308308068
42
0.65487348315777516
10
-31.721804397469104
20
-49.925575341802883
10
-43.738532495222955
20
-61.083965718288582
42
0.217428685737795
10
-45.014420773925742
20
-64.150982486891181
42
-2.6794159105371942
10
-67.305060235957242
20
-40.145678450857261
42
0.21742868573779442
10
-64.15206547624129
20
-39.100160969499619
10
-56.431617934554971
20
-31.931173966505192
42
0.6816493798927975
10
-59.153422332024086
20
-24.999999999999996
0
ENDSEC
0
SECTION
2
OBJECTS
0
DICTIONARY
5
C
100
AcDbDictionary
3
ACAD_GROUP
350
D
3
ACAD_MLINESTYLE
350
17
0
DICTIONARY
5
D
100
AcDbDictionary
0
DICTIONARY
5
1A
330
C
100
AcDbDictionary
0
DICTIONARY
5
17
100
AcDbDictionary
0
ENDSEC
0
EOF
