0
SECTION
2
HEADER
9
$INSUNITS
70
4
9
$ACADVER
1
AC1014
9
$HANDSEED
5
FFFF
0
ENDSEC
0
SECTION
2
TABLES
0
TABLE
2
VPORT
5
8
100
AcDbSymbolTable
0
ENDTAB
0
TABLE
2
LTYPE
5
5
100
AcDbSymbolTable
0
LTYPE
5
14
100
AcDbSymbolTableRecord
100
AcDbLinetypeTableRecord
2
BYBLOCK
70
0
0
LTYPE
5
15
100
AcDbSymbolTableRecord
100
AcDbLinetypeTableRecord
2
BYLAYER
70
0
0
ENDTAB
0
TABLE
2
LAYER
5
2
100
AcDbSymbolTable
70
2
0
LAYER
5
50
100
AcDbSymbolTableRecord
100
AcDbLayerTableRecord
2
0
70
0
6
CONTINUOUS
0
ENDTAB
0
TABLE
2
STYLE
5
3
100
AcDbSymbolTable
70
1
0
STYLE
5
11
100
AcDbSymbolTableRecord
100
AcDbTextStyleTableRecord
2
STANDARD
70
0
0
ENDTAB
0
TABLE
2
VIEW
5
6
100
AcDbSymbolTable
70
0
0
ENDTAB
0
TABLE
2
UCS
5
7
100
AcDbSymbolTable
70
0
0
ENDTAB
0
TABLE
2
APPID
5
9
100
AcDbSymbolTable
70
2
0
APPID
5
12
100
AcDbSymbolTableRecord
100
AcDbRegAppTableRecord
2
ACAD
70
0
0
ENDTAB
0
TABLE
2
DIMSTYLE
5
A
100
AcDbSymbolTable
70
1
0
ENDTAB
0
TABLE
2
BLOCK_RECORD
5
1
100
AcDbSymbolTable
70
1
0
BLOCK_RECORD
5
1F
100
AcDbSymbolTableRecord
100
AcDbBlockTableRecord
2
*MODEL_SPACE
0
BLOCK_RECORD
5
1B
100
AcDbSymbolTableRecord
100
AcDbBlockTableRecord
2
*PAPER_SPACE
0
ENDTAB
0
ENDSEC
0
SECTION
2
BLOCKS
0
BLOCK
5
20
100
AcDbEntity
100
AcDbBlockBegin
2
*MODEL_SPACE
0
ENDBLK
5
21
100
AcDbEntity
100
AcDbBlockEnd
0
BLOCK
5
1C
100
AcDbEntity
100
AcDbBlockBegin
2
*PAPER_SPACE
0
ENDBLK
5
1D
100
AcDbEntity
100
AcDbBlockEnd
0
ENDSEC
0
SECTION
2
ENTITIES
0
LWPOLYLINE
5
100
100
AcDbEntity
8
0
100
AcDbPolyline
90
40
70
1
43
0.0
10
-54
20
-200
10
-96
20
-200
42
-0.41421356237309503
10
-100
20
-196
10
-100
20
-154
42
0.41421356237309503
10
-104
20
-150
10
-146
20
-150
42
-0.41421356237309503
10
-150.00000000000003
20
-146
10
-150.00000000000003
20
-104
42
0.41421356237309503
10
-154.00000000000003
20
-100
10
-196
20
-99.999999999999986
42
-0.41421356237309503
10
-200
20
-96
10
-199.99999999999997
20
-53.999999999999986
42
-0.41421356237309698
10
-195.99999999999994
20
-50
10
-154
20
-49.999999999999993
42
0.4142135623730957
10
-150
20
-45.999999999999979
10
-150
20
-3.9999999999999853
42
-0.41421356237309392
10
-146
20
0
10
-104.00000000000003
20
0
42
0.41421356237309398
10
-100.00000000000001
20
3.9999999999999858
10
-99.999999999999986
20
46.000000000000014
42
-0.41421356237309503
10
-96
20
50
10
-54
20
50
42
-0.4142135623730937
10
-50
20
46.000000000000014
10
-50
20
3.9999999999999858
42
0.41421356237309398
10
-46
20
0
10
-4.0000000000000027
20
-2.7755575615628914e-15
42
-0.41421356237309387
10
0
20
-3.9999999999999858
10
-6.106226635438361e-15
20
-46.000000000000014
42
0.41421356237309509
10
3.9999999999999947
20
-50.000000000000014
10
46
20
-50.000000000000014
42
-0.41421356237309503
10
50
20
-54.000000000000021
10
49.999999999999993
20
-96.000000000000014
42
-0.41421356237309437
10
46
20
-100.00000000000003
10
3.9999999999999849
20
-100.00000000000001
42
0.41421356237309503
10
-1.7763568394002505e-14
20
-104.00000000000003
10
-2.7755575615628914e-14
20
-146
42
-0.41421356237309498
10
-4.0000000000000302
20
-150
10
-46
20
-150
42
0.41421356237309503
10
-50
20
-154
10
-50.000000000000014
20
-196
42
-0.41421356237309503
0
ENDSEC
0
SECTION
2
OBJECTS
0
DICTIONARY
5
C
100
AcDbDictionary
3
ACAD_GROUP
350
D
3
ACAD_MLINESTYLE
350
17
0
DICTIONARY
5
D
100
AcDbDictionary
0
DICTIONARY
5
1A
330
C
100
AcDbDictionary
0
DICTIONARY
5
17
100
AcDbDictionary
0
ENDSEC
0
EOF
